<svg width="14" height="15" viewBox="0 0 14 15" fill="none" xmlns="http://www.w3.org/2000/svg">
<path d="M5.95405 3.11309C6.06031 3.00308 6.1191 2.85572 6.11778 2.70278C6.11645 2.54983 6.0551 2.40352 5.94694 2.29537C5.83879 2.18721 5.69248 2.12586 5.53953 2.12453C5.38658 2.1232 5.23923 2.182 5.12922 2.28826L2.91663 4.50084L1.87072 3.45493C1.81691 3.39921 1.75254 3.35477 1.68137 3.3242C1.6102 3.29363 1.53365 3.27754 1.4562 3.27686C1.37875 3.27619 1.30193 3.29095 1.23024 3.32028C1.15855 3.34961 1.09342 3.39293 1.03865 3.4477C0.983881 3.50247 0.940567 3.5676 0.911237 3.63929C0.881906 3.71098 0.867147 3.78779 0.86782 3.86524C0.868493 3.9427 0.884585 4.01924 0.915157 4.09041C0.945729 4.16158 0.990168 4.22595 1.04588 4.27976L2.50422 5.73809C2.61361 5.84745 2.76195 5.90889 2.91663 5.90889C3.07131 5.90889 3.21966 5.84745 3.32905 5.73809L5.95405 3.11309ZM7.5833 3.86676C7.42859 3.86676 7.28022 3.92822 7.17082 4.03761C7.06142 4.14701 6.99997 4.29538 6.99997 4.45009C6.99997 4.6048 7.06142 4.75318 7.17082 4.86257C7.28022 4.97197 7.42859 5.03343 7.5833 5.03343H12.25C12.4047 5.03343 12.553 4.97197 12.6624 4.86257C12.7718 4.75318 12.8333 4.6048 12.8333 4.45009C12.8333 4.29538 12.7718 4.14701 12.6624 4.03761C12.553 3.92822 12.4047 3.86676 12.25 3.86676H7.5833ZM3.49997 9.11676C2.88113 9.11676 2.28763 9.36259 1.85005 9.80018C1.41247 10.2378 1.16663 10.8313 1.16663 11.4501C1.16663 12.0689 1.41247 12.6624 1.85005 13.1C2.28763 13.5376 2.88113 13.7834 3.49997 13.7834C4.1188 13.7834 4.7123 13.5376 5.14988 13.1C5.58747 12.6624 5.8333 12.0689 5.8333 11.4501C5.8333 10.8313 5.58747 10.2378 5.14988 9.80018C4.7123 9.36259 4.1188 9.11676 3.49997 9.11676ZM2.3333 11.4501C2.3333 11.1407 2.45622 10.8439 2.67501 10.6251C2.8938 10.4063 3.19055 10.2834 3.49997 10.2834C3.80939 10.2834 4.10613 10.4063 4.32492 10.6251C4.54372 10.8439 4.66663 11.1407 4.66663 11.4501C4.66663 11.7595 4.54372 12.0563 4.32492 12.2751C4.10613 12.4938 3.80939 12.6168 3.49997 12.6168C3.19055 12.6168 2.8938 12.4938 2.67501 12.2751C2.45622 12.0563 2.3333 11.7595 2.3333 11.4501ZM6.99997 11.4501C6.99997 11.2954 7.06142 11.147 7.17082 11.0376C7.28022 10.9282 7.42859 10.8668 7.5833 10.8668H12.25C12.4047 10.8668 12.553 10.9282 12.6624 11.0376C12.7718 11.147 12.8333 11.2954 12.8333 11.4501C12.8333 11.6048 12.7718 11.7532 12.6624 11.8626C12.553 11.972 12.4047 12.0334 12.25 12.0334H7.5833C7.42859 12.0334 7.28022 11.972 7.17082 11.8626C7.06142 11.7532 6.99997 11.6048 6.99997 11.4501Z" fill="#A6A6A6"/>
</svg>
