<svg width="14" height="15" viewBox="0 0 14 15" fill="none" xmlns="http://www.w3.org/2000/svg">
<path d="M6.03813 11.0907C6.06702 11.0618 6.08994 11.0276 6.10558 10.9898C6.12122 10.9521 6.12926 10.9116 6.12926 10.8708C6.12926 10.83 6.12122 10.7895 6.10558 10.7518C6.08994 10.714 6.06702 10.6798 6.03813 10.6509L5.65313 10.2659C5.62426 10.237 5.58998 10.2141 5.55224 10.1984C5.51451 10.1828 5.47406 10.1748 5.43322 10.1748C5.39237 10.1748 5.35193 10.1828 5.31419 10.1984C5.27646 10.2141 5.24217 10.237 5.2133 10.2659L4.08047 11.3987V2.7193C4.08047 2.63684 4.04771 2.55776 3.9894 2.49945C3.93109 2.44114 3.85201 2.40839 3.76955 2.40839H3.22472C3.14226 2.40839 3.06317 2.44114 3.00487 2.49945C2.94656 2.55776 2.9138 2.63684 2.9138 2.7193V11.3958L1.78388 10.2659C1.75501 10.237 1.72073 10.2141 1.68299 10.1984C1.64526 10.1828 1.60481 10.1748 1.56397 10.1748C1.52312 10.1748 1.48268 10.1828 1.44494 10.1984C1.40721 10.2141 1.37292 10.237 1.34405 10.2659L0.959051 10.6509C0.93016 10.6798 0.907241 10.714 0.891605 10.7518C0.875968 10.7895 0.86792 10.83 0.86792 10.8708C0.86792 10.9116 0.875968 10.9521 0.891605 10.9898C0.907241 11.0276 0.93016 11.0618 0.959051 11.0907L3.26905 13.4007C3.33205 13.4637 3.41605 13.4941 3.49888 13.4917C3.54138 13.4931 3.58372 13.4857 3.62325 13.4701C3.66279 13.4544 3.69869 13.4308 3.72872 13.4007L6.03872 11.0907H6.03813ZM7.95905 5.24922C7.93007 5.22034 7.90708 5.18602 7.89139 5.14823C7.8757 5.11044 7.86763 5.06993 7.86763 5.02901C7.86763 4.9881 7.8757 4.94758 7.89139 4.9098C7.90708 4.87201 7.93007 4.83769 7.95905 4.8088L10.2691 2.4988C10.2991 2.4688 10.3351 2.4453 10.3746 2.42975C10.4141 2.41419 10.4564 2.40692 10.4989 2.40839C10.5414 2.407 10.5837 2.41436 10.6233 2.43002C10.6628 2.44567 10.6987 2.46928 10.7287 2.49939L13.0387 4.80939C13.0676 4.83826 13.0905 4.87254 13.1062 4.91028C13.1218 4.94801 13.1298 4.98846 13.1298 5.0293C13.1298 5.07015 13.1218 5.11059 13.1062 5.14833C13.0905 5.18606 13.0676 5.22035 13.0387 5.24922L12.6537 5.63422C12.6248 5.6632 12.5905 5.68619 12.5527 5.70188C12.5149 5.71757 12.4744 5.72564 12.4335 5.72564C12.3926 5.72564 12.3521 5.71757 12.3143 5.70188C12.2765 5.68619 12.2422 5.6632 12.2133 5.63422L11.0834 4.5043V13.2001C11.0834 13.2825 11.0506 13.3616 10.9923 13.4199C10.934 13.4782 10.8549 13.511 10.7725 13.511H10.2282C10.1873 13.511 10.1467 13.503 10.1089 13.4874C10.0711 13.4718 10.0367 13.4488 10.0078 13.4199C9.97884 13.391 9.9559 13.3566 9.94027 13.3188C9.92465 13.2809 9.91664 13.2404 9.91672 13.1995V4.50197L8.78388 5.63422C8.75501 5.66311 8.72073 5.68603 8.68299 5.70167C8.64526 5.7173 8.60481 5.72535 8.56397 5.72535C8.52312 5.72535 8.48268 5.7173 8.44494 5.70167C8.40721 5.68603 8.37292 5.66311 8.34405 5.63422L7.95905 5.24922Z" fill="#A6A6A6"/>
</svg>
